<svg version="1.1" id="Layer_1" xmlns="http://www.w3.org/2000/svg" xmlns:xlink="http://www.w3.org/1999/xlink" x="0px" y="0px"
	 width="100%" viewBox="0 0 1500 1500" enable-background="new 0 0 1500 1500" xml:space="preserve">
<path fill="none" opacity="1.000000" stroke="none" 
	d="
M1023.000000,1501.000000 
	C682.000061,1501.000000 341.500122,1501.000000 1.000137,1501.000000 
	C1.000091,1001.000122 1.000091,501.000305 1.000046,1.000338 
	C500.999756,1.000226 1000.999512,1.000226 1500.999512,1.000113 
	C1500.999634,500.999664 1500.999634,1000.999329 1500.999756,1500.999512 
	C1341.833374,1501.000000 1182.666626,1501.000000 1023.000000,1501.000000 
M1234.974731,556.485352 
	C1234.877930,556.335510 1234.781250,556.185730 1234.503662,555.376221 
	C1216.918335,514.395264 1189.292725,482.337646 1149.903809,460.970551 
	C1114.129639,441.564270 1075.477539,432.738220 1035.072266,431.082825 
	C985.209534,429.039978 937.045715,437.803864 890.176575,454.488007 
	C887.904480,455.296814 885.424805,455.522247 882.892456,455.335022 
	C848.566650,397.513397 798.449219,359.462402 735.355530,337.805511 
	C696.467102,324.457123 656.275330,317.911591 615.281006,317.133545 
	C588.994812,316.634674 562.507996,316.072723 536.411377,318.617950 
	C493.817078,322.772217 453.516418,336.061432 415.527100,355.922211 
	C356.753967,386.648743 311.815826,431.046570 282.479675,490.849915 
	C263.465546,529.611206 253.586853,570.746948 249.773438,613.570618 
	C245.855438,657.568787 248.323303,701.092041 259.048737,743.996216 
	C278.027802,819.916687 319.923004,879.985046 384.452911,924.250549 
	C417.657410,947.027771 453.902222,963.532898 492.139282,975.728699 
	C525.325806,986.313477 558.993408,994.843872 593.905212,997.504517 
	C624.888367,999.865845 655.919250,1000.050659 686.722290,996.251526 
	C708.618530,993.550964 730.235046,988.581909 752.742798,984.586243 
	C755.393494,986.495117 758.225525,988.197693 760.667480,990.343994 
	C792.630249,1018.435730 828.109192,1040.578735 868.480652,1054.562256 
	C912.205444,1069.707275 957.017700,1072.661377 1002.474609,1065.716919 
	C1041.918945,1059.690918 1079.101685,1046.309692 1114.722290,1028.526611 
	C1138.743530,1016.534241 1162.148193,1003.591064 1181.647095,984.637390 
	C1243.590210,924.426147 1274.671143,850.339478 1279.813110,764.891479 
	C1282.662231,717.551025 1276.214233,671.101196 1261.683838,626.046814 
	C1254.412720,603.500732 1244.748169,581.726562 1236.160522,559.263733 
	C1236.160522,559.263733 1235.931274,559.013123 1235.903320,558.385742 
	C1235.640381,558.075317 1235.377319,557.764893 1235.192749,557.199097 
	C1235.192749,557.199097 1234.994629,557.020020 1234.974731,556.485352 
z"/>
<path fill="#F7B101" opacity="1.000000" stroke="none" 
	d="
M751.976379,984.625244 
	C730.235046,988.581909 708.618530,993.550964 686.722290,996.251526 
	C655.919250,1000.050659 624.888367,999.865845 593.905212,997.504517 
	C558.993408,994.843872 525.325806,986.313477 492.139282,975.728699 
	C453.902222,963.532898 417.657410,947.027771 384.452911,924.250549 
	C319.923004,879.985046 278.027802,819.916687 259.048737,743.996216 
	C248.323303,701.092041 245.855438,657.568787 249.773438,613.570618 
	C253.586853,570.746948 263.465546,529.611206 282.479675,490.849915 
	C311.815826,431.046570 356.753967,386.648743 415.527100,355.922211 
	C453.516418,336.061432 493.817078,322.772217 536.411377,318.617950 
	C562.507996,316.072723 588.994812,316.634674 615.281006,317.133545 
	C656.275330,317.911591 696.467102,324.457123 735.355530,337.805511 
	C798.449219,359.462402 848.566650,397.513397 882.795715,455.982666 
	C881.271301,457.427490 879.898315,458.349670 878.407227,459.001984 
	C867.299133,463.861298 855.690796,467.809662 845.145325,473.673096 
	C824.848816,484.958069 804.677673,496.604095 785.321045,509.410065 
	C760.639160,525.739136 738.482361,545.247559 718.331726,567.039124 
	C701.945129,584.760132 686.432068,603.178223 674.495544,624.164490 
	C665.312561,640.309570 656.655212,656.882446 649.391724,673.957520 
	C640.485962,694.893677 634.660645,716.883423 632.842468,739.757568 
	C631.378418,758.177734 630.990356,776.564514 634.473694,794.810730 
	C636.085083,803.251587 638.159058,811.604126 639.688599,820.046997 
	C638.304749,823.737854 643.924561,836.057434 647.986816,839.257568 
	C647.991211,839.502625 648.000000,839.992676 648.003662,840.371338 
	C648.573242,842.295837 648.966248,843.934021 649.734558,845.371643 
	C653.493469,852.405762 656.958679,859.638672 661.251099,866.337891 
	C673.328918,885.188110 685.120728,904.274109 698.222595,922.401855 
	C713.312805,943.280701 730.835510,962.199951 749.454712,980.055420 
	C750.653503,981.205078 751.152039,983.085022 751.976379,984.625244 
M311.470062,507.084564 
	C309.993683,517.041565 307.306244,527.002747 307.340851,536.954468 
	C307.386261,550.026245 309.906219,563.111633 316.222961,574.836914 
	C320.100830,582.035156 323.887390,590.175537 329.965759,595.133423 
	C351.064636,612.343140 376.585632,618.427368 403.167572,619.858765 
	C422.292175,620.888550 441.329163,618.550476 459.594391,612.747009 
	C474.262848,608.086365 488.835358,602.752930 502.765991,596.251465 
	C515.198486,590.449158 526.728760,582.698181 538.595703,575.702759 
	C567.691345,558.551147 594.867798,538.973511 618.313721,514.381531 
	C629.264343,502.895660 639.268066,490.814972 647.228882,477.128815 
	C655.942383,462.148590 661.420959,446.076294 661.982483,428.591156 
	C662.491699,412.733002 657.889587,398.236145 650.273926,384.467621 
	C643.450562,372.131500 634.592041,362.182526 621.698120,355.754395 
	C602.183167,346.025391 581.930298,339.022156 560.037903,338.070282 
	C546.989014,337.502899 533.638428,336.412781 520.880371,338.436981 
	C503.485107,341.196869 486.218994,345.761963 469.443848,351.229309 
	C436.389893,362.002258 407.984009,380.958008 382.938263,404.777893 
	C370.916199,416.211548 359.596039,428.457642 348.692108,440.975250 
	C331.969116,460.172974 318.748871,481.536743 311.470062,507.084564 
M721.690918,408.819214 
	C728.646362,414.877197 736.563354,418.810486 745.886841,419.305054 
	C750.850037,419.568329 755.675171,418.743408 758.554749,414.077332 
	C761.346497,409.553680 760.064270,404.934570 757.447571,400.905945 
	C749.994629,389.431366 739.322021,382.976746 725.607483,382.473297 
	C714.845032,382.078278 709.898804,390.414551 714.999084,399.949738 
	C716.618591,402.977325 719.097412,405.545227 721.690918,408.819214 
z"/>
<path fill="#F7BE0C" opacity="1.000000" stroke="none" 
	d="
M752.359619,984.605713 
	C751.152039,983.085022 750.653503,981.205078 749.454712,980.055420 
	C730.835510,962.199951 713.312805,943.280701 698.222595,922.401855 
	C685.120728,904.274109 673.328918,885.188110 661.251099,866.337891 
	C656.958679,859.638672 653.493469,852.405762 649.734558,845.371643 
	C648.966248,843.934021 648.573242,842.295837 648.310425,840.528015 
	C649.344788,841.400635 650.179382,842.440491 650.791687,843.598083 
	C660.558411,862.062439 672.550964,878.696472 688.148254,892.880127 
	C704.815186,908.036621 723.387817,919.828247 743.869080,929.013428 
	C775.992920,943.419922 809.961121,949.125061 844.752075,950.880066 
	C853.669189,951.329895 862.682922,950.635681 871.610413,949.934082 
	C886.117859,948.794128 900.673035,947.780945 915.059387,945.690674 
	C937.910583,942.370667 960.063232,935.903442 981.883179,928.478699 
	C1016.351135,916.750000 1048.588257,900.410706 1079.089478,880.559021 
	C1108.144165,861.648865 1135.065186,840.147522 1158.117310,814.193726 
	C1170.095581,800.707581 1181.586060,786.701294 1192.277466,772.179382 
	C1208.112427,750.670898 1220.185425,726.987183 1229.504517,701.936035 
	C1238.108521,678.807739 1243.543823,654.927368 1244.875732,630.305847 
	C1245.973755,610.008972 1243.887817,589.904053 1238.259033,570.253113 
	C1237.266479,566.787598 1236.849121,563.157410 1236.166138,559.603271 
	C1244.748169,581.726562 1254.412720,603.500732 1261.683838,626.046814 
	C1276.214233,671.101196 1282.662231,717.551025 1279.813110,764.891479 
	C1274.671143,850.339478 1243.590210,924.426147 1181.647095,984.637390 
	C1162.148193,1003.591064 1138.743530,1016.534241 1114.722290,1028.526611 
	C1079.101685,1046.309692 1041.918945,1059.690918 1002.474609,1065.716919 
	C957.017700,1072.661377 912.205444,1069.707275 868.480652,1054.562256 
	C828.109192,1040.578735 792.630249,1018.435730 760.667480,990.343994 
	C758.225525,988.197693 755.393494,986.495117 752.359619,984.605713 
z"/>
<path fill="#F8D503" opacity="1.000000" stroke="none" 
	d="
M1236.163330,559.433472 
	C1236.849121,563.157410 1237.266479,566.787598 1238.259033,570.253113 
	C1243.887817,589.904053 1245.973755,610.008972 1244.875732,630.305847 
	C1243.543823,654.927368 1238.108521,678.807739 1229.504517,701.936035 
	C1220.185425,726.987183 1208.112427,750.670898 1192.277466,772.179382 
	C1181.586060,786.701294 1170.095581,800.707581 1158.117310,814.193726 
	C1135.065186,840.147522 1108.144165,861.648865 1079.089478,880.559021 
	C1048.588257,900.410706 1016.351135,916.750000 981.883179,928.478699 
	C960.063232,935.903442 937.910583,942.370667 915.059387,945.690674 
	C900.673035,947.780945 886.117859,948.794128 871.610413,949.934082 
	C862.682922,950.635681 853.669189,951.329895 844.752075,950.880066 
	C809.961121,949.125061 775.992920,943.419922 743.869080,929.013428 
	C723.387817,919.828247 704.815186,908.036621 688.148254,892.880127 
	C672.550964,878.696472 660.558411,862.062439 650.791687,843.598083 
	C650.179382,842.440491 649.344788,841.400635 648.306763,840.149292 
	C648.000000,839.992676 647.991211,839.502625 647.956238,838.892334 
	C645.288635,832.186890 642.656006,826.091797 640.023315,819.996704 
	C638.159058,811.604126 636.085083,803.251587 634.473694,794.810730 
	C630.990356,776.564514 631.378418,758.177734 632.842468,739.757568 
	C634.660645,716.883423 640.485962,694.893677 649.391724,673.957520 
	C656.655212,656.882446 665.312561,640.309570 674.495544,624.164490 
	C686.432068,603.178223 701.945129,584.760132 718.331726,567.039124 
	C738.482361,545.247559 760.639160,525.739136 785.321045,509.410065 
	C804.677673,496.604095 824.848816,484.958069 845.145325,473.673096 
	C855.690796,467.809662 867.299133,463.861298 878.407227,459.001984 
	C879.898315,458.349670 881.271301,457.427490 882.870361,456.324829 
	C885.424805,455.522247 887.904480,455.296814 890.176575,454.488007 
	C937.045715,437.803864 985.209534,429.039978 1035.072266,431.082825 
	C1075.477539,432.738220 1114.129639,441.564270 1149.903809,460.970551 
	C1189.292725,482.337646 1216.918335,514.395264 1234.478271,555.836060 
	C1234.633545,556.537292 1234.814087,556.778625 1234.994629,557.020020 
	C1234.994629,557.020020 1235.192749,557.199097 1235.188721,557.635071 
	C1235.433594,558.385071 1235.682373,558.699097 1235.931274,559.013123 
	C1235.931274,559.013123 1236.160522,559.263733 1236.163330,559.433472 
M868.063965,480.500763 
	C828.751038,498.095520 792.509705,520.533325 760.175293,549.092773 
	C722.241272,582.598022 691.409546,621.447998 671.473145,668.309204 
	C656.166992,704.286926 648.572571,741.584961 653.982788,780.801697 
	C660.260376,826.304871 682.090759,862.862610 718.524841,890.539124 
	C749.245850,913.875854 784.609985,925.955872 822.505432,930.844910 
	C862.913208,936.058044 902.985962,933.103943 942.421265,923.241028 
	C1025.210205,902.535095 1095.279175,860.403809 1151.870483,796.474670 
	C1182.607056,761.752686 1205.503296,722.452393 1217.328003,677.217529 
	C1224.493164,649.807129 1226.804932,621.990112 1221.613037,594.095703 
	C1210.877075,536.415527 1177.017334,496.356659 1124.963989,471.082153 
	C1092.379150,455.260529 1057.431763,448.994659 1021.482300,448.226074 
	C995.611816,447.672974 969.992310,450.521759 944.649048,455.860596 
	C918.509338,461.367126 893.334717,469.828522 868.063965,480.500763 
z"/>
<path fill="#F7BE0C" opacity="1.000000" stroke="none" 
	d="
M1235.917236,558.699463 
	C1235.682373,558.699097 1235.433594,558.385071 1235.149536,557.762756 
	C1235.377319,557.764893 1235.640381,558.075317 1235.917236,558.699463 
z"/>
<path fill="#F7BE0C" opacity="1.000000" stroke="none" 
	d="
M1234.984619,556.752686 
	C1234.814087,556.778625 1234.633545,556.537292 1234.568848,556.165894 
	C1234.781250,556.185730 1234.877930,556.335510 1234.984619,556.752686 
z"/>
<path fill="#F7BE0C" opacity="1.000000" stroke="none" 
	d="
M311.625763,506.709778 
	C318.748871,481.536743 331.969116,460.172974 348.692108,440.975250 
	C359.596039,428.457642 370.916199,416.211548 382.938263,404.777893 
	C407.984009,380.958008 436.389893,362.002258 469.443848,351.229309 
	C486.218994,345.761963 503.485107,341.196869 520.880371,338.436981 
	C533.638428,336.412781 546.989014,337.502899 560.037903,338.070282 
	C581.930298,339.022156 602.183167,346.025391 621.698120,355.754395 
	C634.592041,362.182526 643.450562,372.131500 650.273926,384.467621 
	C657.889587,398.236145 662.491699,412.733002 661.982483,428.591156 
	C661.420959,446.076294 655.942383,462.148590 647.228882,477.128815 
	C639.268066,490.814972 629.264343,502.895660 618.313721,514.381531 
	C594.867798,538.973511 567.691345,558.551147 538.595703,575.702759 
	C526.728760,582.698181 515.198486,590.449158 502.765991,596.251465 
	C488.835358,602.752930 474.262848,608.086365 459.594391,612.747009 
	C441.329163,618.550476 422.292175,620.888550 403.167572,619.858765 
	C376.585632,618.427368 351.064636,612.343140 329.965759,595.133423 
	C323.887390,590.175537 320.100830,582.035156 316.222961,574.836914 
	C309.906219,563.111633 307.386261,550.026245 307.340851,536.954468 
	C307.306244,527.002747 309.993683,517.041565 311.625763,506.709778 
z"/>
<path fill="#451D05" opacity="1.000000" stroke="none" 
	d="
M721.436951,408.571350 
	C719.097412,405.545227 716.618591,402.977325 714.999084,399.949738 
	C709.898804,390.414551 714.845032,382.078278 725.607483,382.473297 
	C739.322021,382.976746 749.994629,389.431366 757.447571,400.905945 
	C760.064270,404.934570 761.346497,409.553680 758.554749,414.077332 
	C755.675171,418.743408 750.850037,419.568329 745.886841,419.305054 
	C736.563354,418.810486 728.646362,414.877197 721.436951,408.571350 
z"/>
<path fill="#F7BE0C" opacity="1.000000" stroke="none" 
	d="
M639.688660,820.046997 
	C642.656006,826.091797 645.288635,832.186890 647.951904,838.647278 
	C643.924561,836.057434 638.304749,823.737854 639.688660,820.046997 
z"/>
<path fill="#F8DED9" opacity="1.000000" stroke="none" 
	d="
M868.410889,480.341736 
	C893.334717,469.828522 918.509338,461.367126 944.649048,455.860596 
	C969.992310,450.521759 995.611816,447.672974 1021.482300,448.226074 
	C1057.431763,448.994659 1092.379150,455.260529 1124.963989,471.082153 
	C1177.017334,496.356659 1210.877075,536.415527 1221.613037,594.095703 
	C1226.804932,621.990112 1224.493164,649.807129 1217.328003,677.217529 
	C1205.503296,722.452393 1182.607056,761.752686 1151.870483,796.474670 
	C1095.279175,860.403809 1025.210205,902.535095 942.421265,923.241028 
	C902.985962,933.103943 862.913208,936.058044 822.505432,930.844910 
	C784.609985,925.955872 749.245850,913.875854 718.524841,890.539124 
	C682.090759,862.862610 660.260376,826.304871 653.982788,780.801697 
	C648.572571,741.584961 656.166992,704.286926 671.473145,668.309204 
	C691.409546,621.447998 722.241272,582.598022 760.175293,549.092773 
	C792.509705,520.533325 828.751038,498.095520 868.410889,480.341736 
M695.786682,821.506592 
	C690.838440,832.998413 692.586121,839.959351 702.055603,847.961487 
	C714.556946,858.525940 729.062988,864.348999 745.206177,865.676880 
	C765.297363,867.329529 784.178467,864.669434 798.071228,847.718262 
	C798.281372,847.461914 798.543884,847.249023 798.777649,847.011536 
	C836.902344,808.273438 868.411255,764.236145 900.038818,720.307983 
	C901.242249,718.636536 900.757812,715.750000 901.059875,713.429688 
	C899.007812,713.752686 896.706177,713.580322 894.939819,714.470276 
	C833.454407,745.450562 772.038696,776.569031 710.547668,807.538025 
	C704.360840,810.654053 699.598511,814.965637 695.786682,821.506592 
M752.386902,772.923340 
	C796.124084,750.014709 839.874939,727.132080 883.557190,704.119263 
	C885.689636,702.995850 887.221436,700.732056 889.032898,698.999329 
	C886.657410,697.778687 884.326965,696.453918 881.881531,695.394714 
	C881.043274,695.031677 879.911438,695.263245 878.923340,695.342407 
	C873.116638,695.807800 867.316589,696.358826 861.507446,696.789246 
	C810.212769,700.589966 758.916870,704.374634 707.620789,708.156799 
	C684.666870,709.849243 669.904297,720.930176 663.912659,741.877258 
	C659.131165,758.593140 662.129822,774.956970 668.701172,790.561646 
	C670.167175,794.042847 674.426270,797.230774 678.134888,798.711365 
	C687.515747,802.456360 697.232971,801.414673 706.159668,796.967163 
	C721.481934,789.333252 736.538086,781.165405 752.386902,772.923340 
M1032.717896,644.260620 
	C1020.254944,650.548523 1007.723816,656.707825 995.391785,663.242798 
	C993.175476,664.417236 991.780212,667.140930 990.005920,669.149353 
	C992.505249,670.460510 994.957397,671.877930 997.531311,673.021179 
	C998.354736,673.386963 999.502625,673.060730 1000.498230,672.993958 
	C1006.476440,672.593323 1012.455505,672.203003 1018.430664,671.760010 
	C1067.224854,668.142212 1116.022705,664.572266 1164.806885,660.824097 
	C1172.035645,660.268738 1179.948975,660.425903 1186.199097,657.437256 
	C1193.770752,653.816772 1200.523193,647.804504 1206.507080,641.722351 
	C1213.226929,634.892212 1216.345825,625.944458 1215.647949,616.145386 
	C1214.986084,606.853210 1213.885986,597.593079 1213.138428,588.305969 
	C1212.075195,575.097595 1198.716919,565.320740 1185.713501,568.632324 
	C1181.728394,569.647217 1177.828979,571.284729 1174.140503,573.135681 
	C1127.200928,596.691711 1080.307251,620.338806 1032.717896,644.260620 
M810.353027,841.847717 
	C803.995544,848.898682 797.668274,855.977173 791.271729,862.992554 
	C785.654236,869.153442 783.128784,876.589478 784.217041,884.603516 
	C785.653442,895.180908 788.803711,899.610229 799.060059,900.914551 
	C802.189758,901.312500 805.262085,902.155029 808.390015,902.575195 
	C835.261353,906.184998 860.864929,903.081299 883.972046,887.725037 
	C886.122864,886.295654 888.226318,883.780640 888.934937,881.355652 
	C894.663513,861.753235 900.932434,842.246643 905.343750,822.335754 
	C912.282776,791.015930 917.893799,759.402100 924.090027,727.917236 
	C924.762817,724.498657 924.721619,721.369995 921.244324,718.818115 
	C884.385376,759.717529 847.610168,800.524048 810.353027,841.847717 
M952.860168,475.898895 
	C950.607727,476.448578 948.321472,476.887756 946.108154,477.565338 
	C928.302917,483.016235 910.630737,488.945648 892.685242,493.883301 
	C870.775208,499.911804 863.801025,522.113647 873.033875,540.410156 
	C881.426147,557.040833 889.997131,573.581238 898.494446,590.158875 
	C907.674072,608.067566 916.878540,625.963501 926.029114,643.887085 
	C928.287231,648.310181 931.951782,650.804443 936.735962,650.880859 
	C941.637817,650.959290 943.752441,646.996948 945.578003,643.170654 
	C946.214233,641.837280 946.552185,640.338806 946.875610,638.882202 
	C956.968994,593.421204 967.056519,547.958984 977.114380,502.490112 
	C980.901062,485.371521 971.360779,474.508484 952.860168,475.898895 
M717.449951,620.892517 
	C714.426514,623.686829 710.572815,625.978271 708.523254,629.362427 
	C699.647156,644.018188 691.243591,658.962219 682.778259,673.864014 
	C677.813293,682.604065 681.118469,691.432556 690.776062,693.893311 
	C696.329407,695.308350 702.293457,695.845581 708.031799,695.639648 
	C718.338867,695.269775 728.610901,693.988403 738.904968,693.182861 
	C786.892029,689.427551 834.884277,685.738159 882.865540,681.910645 
	C886.976807,681.582764 892.005798,680.841858 892.797058,676.037598 
	C893.553894,671.442261 889.199341,669.492798 885.446838,667.820496 
	C854.917419,654.214844 824.400208,640.581482 793.881226,626.952454 
	C785.985657,623.426514 777.901184,620.261780 770.243469,616.277710 
	C751.852478,606.709351 734.640198,609.146362 717.449951,620.892517 
M1142.461426,673.945984 
	C1138.646240,674.273865 1134.831421,674.607483 1131.015625,674.928650 
	C1090.531494,678.336365 1050.042969,681.693176 1009.567139,685.196350 
	C1002.792297,685.782776 995.964661,686.539673 989.361145,688.076294 
	C984.115540,689.296936 983.406921,693.725586 987.402771,697.393005 
	C988.587585,698.480530 990.187744,699.183167 991.693481,699.843445 
	C1031.437622,717.272583 1071.344849,734.340515 1110.877686,752.235657 
	C1127.572632,759.792908 1142.826538,758.300598 1157.765869,748.834839 
	C1161.891846,746.220520 1166.496338,743.321716 1168.994629,739.362854 
	C1178.491577,724.313660 1187.248291,708.795837 1196.215210,693.414429 
	C1200.376343,686.276611 1198.515625,679.418396 1191.030762,675.979980 
	C1186.869263,674.068298 1182.199219,672.167419 1177.759766,672.170715 
	C1166.305542,672.179321 1154.852173,673.249878 1142.461426,673.945984 
M1168.710205,560.253113 
	C1179.284180,555.945801 1184.175171,547.399658 1185.265869,536.673279 
	C1186.139160,528.084656 1182.697632,521.035095 1175.084717,516.455566 
	C1159.675537,507.186371 1143.829956,499.771423 1125.035522,500.497742 
	C1113.256714,500.952972 1103.525879,502.705139 1095.556152,513.285095 
	C1081.943970,531.355286 1066.629517,548.143005 1052.030273,565.469604 
	C1030.560547,590.950195 1009.053772,616.399841 987.709656,641.985229 
	C986.358887,643.604431 986.275269,646.280884 985.602112,648.465454 
	C988.051392,648.603638 990.504333,648.875732 992.948120,648.809814 
	C993.846069,648.785583 994.718079,647.953491 995.609314,647.504639 
	C1053.097290,618.550781 1110.586182,589.598511 1168.710205,560.253113 
M1040.447510,734.050354 
	C1032.963135,730.840149 1025.549072,727.452087 1017.978760,724.459412 
	C1004.999329,719.328430 991.997009,714.232727 978.841553,709.582703 
	C974.741821,708.133606 969.553894,706.773438 966.147217,710.746094 
	C962.651062,714.823181 964.580444,719.776184 966.695251,723.921326 
	C984.303162,758.434204 1001.983948,792.910583 1019.817017,827.307617 
	C1026.927612,841.022949 1049.248901,845.705322 1061.917480,836.229065 
	C1079.251221,823.263062 1096.439087,810.101990 1113.675659,797.006287 
	C1118.097290,793.646973 1120.419434,789.043396 1120.031860,783.594727 
	C1119.355347,774.084229 1114.578735,766.532104 1106.050049,762.638184 
	C1084.585449,752.838074 1062.811157,743.715881 1040.447510,734.050354 
M864.801453,551.686279 
	C863.130981,548.430176 861.505798,545.149902 859.781982,541.922302 
	C853.226929,529.648987 840.928223,524.210388 827.763123,528.623535 
	C822.210815,530.484802 816.967529,533.697693 812.076172,537.020874 
	C797.065247,547.219116 782.247314,557.704163 767.441956,568.201233 
	C755.897705,576.386169 753.143738,588.893860 761.203430,597.149780 
	C763.811401,599.821228 767.153442,602.091492 770.575623,603.604309 
	C808.902649,620.546570 847.309937,637.307251 885.698975,654.109253 
	C890.420105,656.175537 895.058838,658.491821 899.915283,660.173706 
	C907.952576,662.957214 913.334290,659.079895 912.964905,650.717773 
	C912.822998,647.504456 912.010681,644.063721 910.560791,641.204895 
	C895.514160,611.538452 880.274963,581.969727 864.801453,551.686279 
M980.796875,540.298401 
	C975.184875,566.288147 969.524475,592.267700 964.001770,618.276367 
	C962.900696,623.461731 962.052124,628.738403 961.657593,634.015625 
	C961.520569,635.847412 962.638611,638.750488 964.039429,639.450012 
	C965.493591,640.176086 968.329102,639.341309 969.939026,638.262085 
	C972.231018,636.725525 974.056702,634.430969 975.908508,632.309204 
	C1013.345825,589.413330 1050.622314,546.375549 1088.325195,503.714600 
	C1093.867920,497.443115 1095.537476,490.958557 1094.969971,483.252319 
	C1094.361328,474.985321 1090.051636,470.547668 1081.740723,469.877106 
	C1067.308716,468.712555 1052.841919,467.935608 1038.431763,466.555573 
	C1017.863159,464.585693 996.863770,478.054108 991.256592,497.877594 
	C987.370544,511.616150 984.348328,525.599060 980.796875,540.298401 
M976.991394,773.529114 
	C970.085693,760.446960 963.181091,747.364258 956.273621,734.283081 
	C954.167419,730.294434 951.556824,726.810852 946.458618,727.123474 
	C942.370483,727.374146 938.108032,731.842834 936.882751,736.793396 
	C932.730774,753.567688 928.366089,770.294739 924.553650,787.146423 
	C918.651001,813.237427 912.845520,839.357422 907.557007,865.577759 
	C903.907715,883.670654 916.543457,894.771729 934.131958,889.646423 
	C952.314392,884.347961 970.534729,879.178040 988.688721,873.784058 
	C1005.887268,868.674011 1015.215332,846.271240 1006.840576,830.208923 
	C997.082275,811.492920 987.159546,792.862610 976.991394,773.529114 
M977.595947,684.787292 
	C977.913269,679.558777 979.349304,674.097961 978.321777,669.148682 
	C975.971802,657.830078 963.167419,653.003662 951.682861,654.194092 
	C937.645386,655.649231 925.508911,661.579102 916.675781,672.925293 
	C911.611633,679.430298 907.770691,686.767456 909.357117,695.396362 
	C911.403992,706.529663 922.425110,714.918701 934.311096,713.801147 
	C953.457886,712.000977 968.851013,703.903931 977.595947,684.787292 
z"/>
<path fill="#F92601" opacity="1.000000" stroke="none" 
	d="
M695.934875,821.160645 
	C699.598511,814.965637 704.360840,810.654053 710.547668,807.538025 
	C772.038696,776.569031 833.454407,745.450562 894.939819,714.470276 
	C896.706177,713.580322 899.007812,713.752686 901.059814,713.429688 
	C900.757812,715.750000 901.242249,718.636536 900.038818,720.307983 
	C868.411255,764.236145 836.902344,808.273438 798.777649,847.011536 
	C798.543884,847.249023 798.281372,847.461914 798.071228,847.718262 
	C784.178467,864.669434 765.297363,867.329529 745.206177,865.676880 
	C729.062988,864.348999 714.556946,858.525940 702.055603,847.961487 
	C692.586121,839.959351 690.838440,832.998413 695.934875,821.160645 
z"/>
<path fill="#F92601" opacity="1.000000" stroke="none" 
	d="
M752.046387,773.072510 
	C736.538086,781.165405 721.481934,789.333252 706.159668,796.967163 
	C697.232971,801.414673 687.515747,802.456360 678.134888,798.711365 
	C674.426270,797.230774 670.167175,794.042847 668.701172,790.561646 
	C662.129822,774.956970 659.131165,758.593140 663.912659,741.877258 
	C669.904297,720.930176 684.666870,709.849243 707.620789,708.156799 
	C758.916870,704.374634 810.212769,700.589966 861.507446,696.789246 
	C867.316589,696.358826 873.116638,695.807800 878.923340,695.342407 
	C879.911438,695.263245 881.043274,695.031677 881.881531,695.394714 
	C884.326965,696.453918 886.657410,697.778687 889.032898,698.999329 
	C887.221436,700.732056 885.689636,702.995850 883.557190,704.119263 
	C839.874939,727.132080 796.124084,750.014709 752.046387,773.072510 
z"/>
<path fill="#F92601" opacity="1.000000" stroke="none" 
	d="
M1033.059814,644.111633 
	C1080.307251,620.338806 1127.200928,596.691711 1174.140503,573.135681 
	C1177.828979,571.284729 1181.728394,569.647217 1185.713501,568.632324 
	C1198.716919,565.320740 1212.075195,575.097595 1213.138428,588.305969 
	C1213.885986,597.593079 1214.986084,606.853210 1215.647949,616.145386 
	C1216.345825,625.944458 1213.226929,634.892212 1206.507080,641.722351 
	C1200.523193,647.804504 1193.770752,653.816772 1186.199097,657.437256 
	C1179.948975,660.425903 1172.035645,660.268738 1164.806885,660.824097 
	C1116.022705,664.572266 1067.224854,668.142212 1018.430664,671.760010 
	C1012.455505,672.203003 1006.476440,672.593323 1000.498230,672.993958 
	C999.502625,673.060730 998.354736,673.386963 997.531311,673.021179 
	C994.957397,671.877930 992.505249,670.460510 990.005859,669.149292 
	C991.780212,667.140930 993.175476,664.417236 995.391785,663.242798 
	C1007.723816,656.707825 1020.254944,650.548523 1033.059814,644.111633 
z"/>
<path fill="#F92601" opacity="1.000000" stroke="none" 
	d="
M810.593994,841.589111 
	C847.610168,800.524048 884.385376,759.717529 921.244324,718.818115 
	C924.721619,721.369995 924.762817,724.498657 924.090027,727.917236 
	C917.893799,759.402100 912.282776,791.015930 905.343750,822.335754 
	C900.932434,842.246643 894.663513,861.753235 888.934937,881.355652 
	C888.226318,883.780640 886.122864,886.295654 883.972046,887.725037 
	C860.864929,903.081299 835.261353,906.184998 808.390015,902.575195 
	C805.262085,902.155029 802.189758,901.312500 799.060059,900.914551 
	C788.803711,899.610229 785.653442,895.180908 784.217041,884.603516 
	C783.128784,876.589478 785.654236,869.153442 791.271729,862.992554 
	C797.668274,855.977173 803.995544,848.898682 810.593994,841.589111 
z"/>
<path fill="#F92601" opacity="1.000000" stroke="none" 
	d="
M953.315552,475.862488 
	C971.360779,474.508484 980.901062,485.371521 977.114380,502.490112 
	C967.056519,547.958984 956.968994,593.421204 946.875610,638.882202 
	C946.552185,640.338806 946.214233,641.837280 945.578003,643.170654 
	C943.752441,646.996948 941.637817,650.959290 936.735962,650.880859 
	C931.951782,650.804443 928.287231,648.310181 926.029114,643.887085 
	C916.878540,625.963501 907.674072,608.067566 898.494446,590.158875 
	C889.997131,573.581238 881.426147,557.040833 873.033875,540.410156 
	C863.801025,522.113647 870.775208,499.911804 892.685242,493.883301 
	C910.630737,488.945648 928.302917,483.016235 946.108154,477.565338 
	C948.321472,476.887756 950.607727,476.448578 953.315552,475.862488 
z"/>
<path fill="#F92601" opacity="1.000000" stroke="none" 
	d="
M717.742188,620.679077 
	C734.640198,609.146362 751.852478,606.709351 770.243469,616.277710 
	C777.901184,620.261780 785.985657,623.426514 793.881226,626.952454 
	C824.400208,640.581482 854.917419,654.214844 885.446838,667.820496 
	C889.199341,669.492798 893.553894,671.442261 892.797058,676.037598 
	C892.005798,680.841858 886.976807,681.582764 882.865540,681.910645 
	C834.884277,685.738159 786.892029,689.427551 738.904968,693.182861 
	C728.610901,693.988403 718.338867,695.269775 708.031799,695.639648 
	C702.293457,695.845581 696.329407,695.308350 690.776062,693.893311 
	C681.118469,691.432556 677.813293,682.604065 682.778259,673.864014 
	C691.243591,658.962219 699.647156,644.018188 708.523254,629.362427 
	C710.572815,625.978271 714.426514,623.686829 717.742188,620.679077 
z"/>
<path fill="#F92601" opacity="1.000000" stroke="none" 
	d="
M1142.929932,673.921082 
	C1154.852173,673.249878 1166.305542,672.179321 1177.759766,672.170715 
	C1182.199219,672.167419 1186.869263,674.068298 1191.030762,675.979980 
	C1198.515625,679.418396 1200.376343,686.276611 1196.215210,693.414429 
	C1187.248291,708.795837 1178.491577,724.313660 1168.994629,739.362854 
	C1166.496338,743.321716 1161.891846,746.220520 1157.765869,748.834839 
	C1142.826538,758.300598 1127.572632,759.792908 1110.877686,752.235657 
	C1071.344849,734.340515 1031.437622,717.272583 991.693481,699.843445 
	C990.187744,699.183167 988.587585,698.480530 987.402771,697.393005 
	C983.406921,693.725586 984.115540,689.296936 989.361145,688.076294 
	C995.964661,686.539673 1002.792297,685.782776 1009.567139,685.196350 
	C1050.042969,681.693176 1090.531494,678.336365 1131.015625,674.928650 
	C1134.831421,674.607483 1138.646240,674.273865 1142.929932,673.921082 
z"/>
<path fill="#F92601" opacity="1.000000" stroke="none" 
	d="
M1168.392578,560.449585 
	C1110.586182,589.598511 1053.097290,618.550781 995.609314,647.504639 
	C994.718079,647.953491 993.846069,648.785583 992.948120,648.809814 
	C990.504333,648.875732 988.051392,648.603638 985.602112,648.465454 
	C986.275269,646.280884 986.358887,643.604431 987.709656,641.985229 
	C1009.053772,616.399841 1030.560547,590.950195 1052.030273,565.469604 
	C1066.629517,548.143005 1081.943970,531.355286 1095.556152,513.285095 
	C1103.525879,502.705139 1113.256714,500.952972 1125.035522,500.497742 
	C1143.829956,499.771423 1159.675537,507.186371 1175.084717,516.455566 
	C1182.697632,521.035095 1186.139160,528.084656 1185.265869,536.673279 
	C1184.175171,547.399658 1179.284180,555.945801 1168.392578,560.449585 
z"/>
<path fill="#F92601" opacity="1.000000" stroke="none" 
	d="
M1040.804199,734.186157 
	C1062.811157,743.715881 1084.585449,752.838074 1106.050049,762.638184 
	C1114.578735,766.532104 1119.355347,774.084229 1120.031860,783.594727 
	C1120.419434,789.043396 1118.097290,793.646973 1113.675659,797.006287 
	C1096.439087,810.101990 1079.251221,823.263062 1061.917480,836.229065 
	C1049.248901,845.705322 1026.927612,841.022949 1019.817017,827.307617 
	C1001.983948,792.910583 984.303162,758.434204 966.695251,723.921326 
	C964.580444,719.776184 962.651062,714.823181 966.147217,710.746094 
	C969.553894,706.773438 974.741821,708.133606 978.841553,709.582703 
	C991.997009,714.232727 1004.999329,719.328430 1017.978760,724.459412 
	C1025.549072,727.452087 1032.963135,730.840149 1040.804199,734.186157 
z"/>
<path fill="#F92601" opacity="1.000000" stroke="none" 
	d="
M864.945374,552.030029 
	C880.274963,581.969727 895.514160,611.538452 910.560791,641.204895 
	C912.010681,644.063721 912.822998,647.504456 912.964905,650.717773 
	C913.334290,659.079895 907.952576,662.957214 899.915283,660.173706 
	C895.058838,658.491821 890.420105,656.175537 885.698975,654.109253 
	C847.309937,637.307251 808.902649,620.546570 770.575623,603.604309 
	C767.153442,602.091492 763.811401,599.821228 761.203430,597.149780 
	C753.143738,588.893860 755.897705,576.386169 767.441956,568.201233 
	C782.247314,557.704163 797.065247,547.219116 812.076172,537.020874 
	C816.967529,533.697693 822.210815,530.484802 827.763123,528.623535 
	C840.928223,524.210388 853.226929,529.648987 859.781982,541.922302 
	C861.505798,545.149902 863.130981,548.430176 864.945374,552.030029 
z"/>
<path fill="#F92601" opacity="1.000000" stroke="none" 
	d="
M980.868469,539.885620 
	C984.348328,525.599060 987.370544,511.616150 991.256592,497.877594 
	C996.863770,478.054108 1017.863159,464.585693 1038.431763,466.555573 
	C1052.841919,467.935608 1067.308716,468.712555 1081.740723,469.877106 
	C1090.051636,470.547668 1094.361328,474.985321 1094.969971,483.252319 
	C1095.537476,490.958557 1093.867920,497.443115 1088.325195,503.714600 
	C1050.622314,546.375549 1013.345825,589.413330 975.908508,632.309204 
	C974.056702,634.430969 972.231018,636.725525 969.939026,638.262085 
	C968.329102,639.341309 965.493591,640.176086 964.039429,639.450012 
	C962.638611,638.750488 961.520569,635.847412 961.657593,634.015625 
	C962.052124,628.738403 962.900696,623.461731 964.001770,618.276367 
	C969.524475,592.267700 975.184875,566.288147 980.868469,539.885620 
z"/>
<path fill="#F92601" opacity="1.000000" stroke="none" 
	d="
M977.149780,773.862061 
	C987.159546,792.862610 997.082275,811.492920 1006.840576,830.208923 
	C1015.215332,846.271240 1005.887268,868.674011 988.688721,873.784058 
	C970.534729,879.178040 952.314392,884.347961 934.131958,889.646423 
	C916.543457,894.771729 903.907715,883.670654 907.557007,865.577759 
	C912.845520,839.357422 918.651001,813.237427 924.553650,787.146423 
	C928.366089,770.294739 932.730774,753.567688 936.882751,736.793396 
	C938.108032,731.842834 942.370483,727.374146 946.458618,727.123474 
	C951.556824,726.810852 954.167419,730.294434 956.273621,734.283081 
	C963.181091,747.364258 970.085693,760.446960 977.149780,773.862061 
z"/>
<path fill="none" opacity="1.000000" stroke="none" 
	d="
M977.420044,685.142822 
	C968.851013,703.903931 953.457886,712.000977 934.311096,713.801147 
	C922.425110,714.918701 911.403992,706.529663 909.357117,695.396362 
	C907.770691,686.767456 911.611633,679.430298 916.675781,672.925293 
	C925.508911,661.579102 937.645386,655.649231 951.682861,654.194092 
	C963.167419,653.003662 975.971802,657.830078 978.321777,669.148682 
	C979.349304,674.097961 977.913269,679.558777 977.420044,685.142822 
z"/>
</svg>